<?xml version="1.0"?>
<svg xmlns="http://www.w3.org/2000/svg" width="512" height="512" viewBox="0 0 128 128"><g><path d="M76.167,117.254h8.5a1.75,1.75,0,0,0,0-3.5h-8.5a1.75,1.75,0,0,0,0,3.5Z"/><path d="M117,49.05h-9.784L97.644,8.41A4.75,4.75,0,0,0,88.4,10.587l9.06,38.463H30.543L39.6,10.587A4.75,4.75,0,0,0,30.356,8.41L20.784,49.05H11A6.255,6.255,0,0,0,4.75,55.3,6.256,6.256,0,0,0,11,61.543h.822l10.645,60.262a1.75,1.75,0,0,0,1.723,1.445h79.62a1.75,1.75,0,0,0,1.723-1.445l10.645-60.262H117a6.257,6.257,0,0,0,6.25-6.247A6.255,6.255,0,0,0,117,49.05ZM91.957,8.842a1.25,1.25,0,0,1,2.28.371l10.1,42.88a1.25,1.25,0,0,1-2.434.571L91.8,9.784A1.241,1.241,0,0,1,91.957,8.842Zm-58.194.371a1.251,1.251,0,0,1,1.216-.962,1.31,1.31,0,0,1,.29.033,1.247,1.247,0,0,1,.927,1.5L26.1,52.662a1.253,1.253,0,0,1-1.5.931h0a1.25,1.25,0,0,1-.93-1.5l.222-.941ZM102.342,119.75H25.658L15.377,61.543h97.246Zm16.593-62.506a2.693,2.693,0,0,1-1.935.8H11A2.751,2.751,0,0,1,8.25,55.3,2.755,2.755,0,0,1,11,52.55h9.152A4.693,4.693,0,0,0,23.792,57a4.764,4.764,0,0,0,1.1.129A4.756,4.756,0,0,0,29.5,53.465l.215-.915H98.281l.216.917a4.75,4.75,0,0,0,8.661,1.41,4.7,4.7,0,0,0,.69-2.327H117a2.75,2.75,0,0,1,2.75,2.746A2.7,2.7,0,0,1,118.935,57.244Z"/><path d="M64,104.159a4.755,4.755,0,0,0,4.75-4.748V77.385a4.75,4.75,0,0,0-9.5,0V99.411A4.755,4.755,0,0,0,64,104.159ZM62.75,77.385a1.25,1.25,0,0,1,2.5,0V99.411a1.25,1.25,0,0,1-2.5,0Z"/><path d="M79.667,104.159a4.755,4.755,0,0,0,4.75-4.748V77.385a4.75,4.75,0,0,0-9.5,0V99.411A4.755,4.755,0,0,0,79.667,104.159Zm-1.25-26.774a1.25,1.25,0,0,1,2.5,0V99.411a1.25,1.25,0,0,1-2.5,0Z"/><path d="M95.333,104.159a4.755,4.755,0,0,0,4.75-4.748V77.385a4.75,4.75,0,0,0-9.5,0V99.411A4.755,4.755,0,0,0,95.333,104.159Zm-1.25-26.774a1.25,1.25,0,0,1,2.5,0V99.411a1.25,1.25,0,0,1-2.5,0Z"/><path d="M48.333,104.159a4.755,4.755,0,0,0,4.75-4.748V77.385a4.75,4.75,0,0,0-9.5,0V99.411A4.755,4.755,0,0,0,48.333,104.159Zm-1.25-26.774a1.25,1.25,0,0,1,2.5,0V99.411a1.25,1.25,0,0,1-2.5,0Z"/><path d="M32.667,104.159a4.755,4.755,0,0,0,4.75-4.748V77.385a4.75,4.75,0,0,0-9.5,0V99.411A4.755,4.755,0,0,0,32.667,104.159Zm-1.25-26.774a1.25,1.25,0,0,1,2.5,0V99.411a1.25,1.25,0,0,1-2.5,0Z"/></g></svg>
